PathFileType	4	(X/Y/Z) abd_2kg_1.trc																										
DataRate	CameraRate	NumFrames	NumMarkers	Units	OrigDataRate	OrigDataStartFrame	OrigNumFrames																					
100	100	24	9	mm	100	415	829																					
Frame#	Time	gu			centelbow			EpL			centpxt8			centijc7			ij			ts			aa			ai		
		X1	Y1	Z1	X2	Y2	Z2	X3	Y3	Z3	X4	Y4	Z4	X5	Y5	Z5	X6	Y6	Z6	X7	Y7	Z7	X8	Y8	Z8	X9	Y9	Z9  
414	4.14	-117.567	69.289	93.884	-69.418	285.526	203.006	-89.178	296.875	180.198	-46.816	-153.158	-8.669	-46.816	31.938	-8.669	0	0	0	-142.751	-20.567	47.317	-156.979	88.87	92.548	-142.694	-59.022	154.12
415	4.15	-117.575	69.372	93.789	-69.94	285.3	203.745	-89.662	296.702	180.931	-46.816	-153.158	-8.669	-46.816	31.938	-8.669	0	0	0	-142.555	-20.574	47.254	-157.092	88.756	92.647	-142.706	-59.223	153.987
416	4.16	-117.516	69.572	93.587	-70.363	285.204	204.329	-90.059	296.653	181.517	-46.816	-153.158	-8.669	-46.816	31.938	-8.669	0	0	0	-142.32	-20.49	47.068	-157.196	88.716	92.648	-142.647	-59.357	153.721
417	4.17	-117.43	69.768	93.549	-70.75	285.068	205.133	-90.419	296.573	182.325	-46.816	-153.158	-8.669	-46.816	31.938	-8.669	0	0	0	-141.944	-20.319	46.814	-157.177	88.743	92.619	-142.389	-59.437	153.375
418	4.18	-117.417	69.785	93.709	-71.173	284.672	206.267	-90.8	296.252	183.462	-46.816	-153.158	-8.669	-46.816	31.938	-8.669	0	0	0	-141.507	-20.146	46.606	-157.091	88.762	92.66	-142.032	-59.532	153.068
419	4.19	-117.563	69.652	93.864	-71.703	284.046	207.515	-91.279	295.721	184.714	-46.816	-153.158	-8.669	-46.816	31.938	-8.669	0	0	0	-141.188	-19.976	46.398	-157.096	88.781	92.7	-141.767	-59.627	152.761
420	4.2	-117.827	69.508	93.922	-72.336	283.357	208.741	-91.862	295.136	185.95	-46.816	-153.158	-8.669	-46.816	31.938	-8.669	0	0	0	-141.002	-19.826	46.128	-157.197	88.789	92.661	-141.629	-59.725	152.398
421	4.21	-118.135	69.416	93.958	-73.06	282.691	210.002	-92.537	294.577	187.225	-46.816	-153.158	-8.669	-46.816	31.938	-8.669	0	0	0	-140.837	-19.755	45.917	-157.284	88.728	92.669	-141.544	-59.891	152.097
422	4.22	-118.43	69.437	94.027	-73.834	282.122	211.332	-93.266	294.114	188.572	-46.816	-153.158	-8.669	-46.816	31.938	-8.669	0	0	0	-140.662	-19.76	45.845	-157.336	88.59	92.824	-141.496	-60.148	151.928
423	4.23	-118.611	69.593	94.153	-74.47	281.669	212.727	-93.866	293.767	189.993	-46.816	-153.158	-8.669	-46.816	31.938	-8.669	0	0	0	-140.535	-19.87	45.84	-157.397	88.335	93.084	-141.504	-60.546	151.812
424	4.24	-118.564	69.672	94.419	-74.698	281.097	214.25	-94.071	293.313	191.559	-46.816	-153.158	-8.669	-46.816	31.938	-8.669	0	0	0	-140.425	-20.108	45.897	-157.406	87.938	93.463	-141.473	-61.116	151.74
425	4.25	-118.267	69.483	94.836	-74.428	280.202	215.914	-93.79	292.552	193.286	-46.816	-153.158	-8.669	-46.816	31.938	-8.669	0	0	0	-140.197	-20.273	46.038	-157.229	87.598	93.983	-141.232	-61.653	151.737
426	4.26	-117.881	69.298	95.203	-73.984	279.291	217.515	-93.35	291.777	194.966	-46.816	-153.158	-8.669	-46.816	31.938	-8.669	0	0	0	-139.827	-20.108	46.181	-156.893	87.574	94.536	-140.783	-61.882	151.725
427	4.27	-117.644	69.515	95.308	-73.872	278.821	218.837	-93.252	291.425	196.365	-46.816	-153.158	-8.669	-46.816	31.938	-8.669	0	0	0	-139.5	-19.677	46.239	-156.633	87.814	94.995	-140.396	-61.839	151.63
428	4.28	-117.633	69.995	95.183	-74.229	278.657	219.925	-93.61	291.362	197.511	-46.816	-153.158	-8.669	-46.816	31.938	-8.669	0	0	0	-139.375	-19.302	46.213	-156.617	88.009	95.325	-140.305	-61.825	151.458
429	4.29	-117.725	70.279	95.045	-74.77	278.313	220.986	-94.119	291.119	198.601	-46.816	-153.158	-8.669	-46.816	31.938	-8.669	0	0	0	-139.379	-19.18	46.12	-156.749	87.971	95.532	-140.446	-62.024	151.233
430	4.3	-117.789	70.279	95.05	-75.256	277.704	222.133	-94.545	290.614	199.757	-46.816	-153.158	-8.669	-46.816	31.938	-8.669	0	0	0	-139.31	-19.254	45.958	-156.816	87.757	95.627	-140.578	-62.385	150.951
431	4.31	-117.788	70.256	95.172	-75.697	277.086	223.368	-94.92	290.098	200.994	-46.816	-153.158	-8.669	-46.816	31.938	-8.669	0	0	0	-139.036	-19.393	45.712	-156.699	87.475	95.633	-140.518	-62.81	150.585
432	4.32	-117.694	70.26	95.32	-76.105	276.45	224.706	-95.263	289.567	202.338	-46.816	-153.158	-8.669	-46.816	31.938	-8.669	0	0	0	-138.607	-19.522	45.337	-156.463	87.186	95.531	-140.296	-63.248	150.079
433	4.33	-117.576	70.162	95.451	-76.52	275.627	226.154	-95.607	288.864	203.796	-46.816	-153.158	-8.669	-46.816	31.938	-8.669	0	0	0	-138.197	-19.55	44.817	-156.284	86.978	95.309	-140.096	-63.614	149.413
434	4.34	-117.599	70.088	95.539	-77.115	274.785	227.615	-96.123	288.148	205.265	-46.816	-153.158	-8.669	-46.816	31.938	-8.669	0	0	0	-137.868	-19.392	44.289	-156.219	86.941	95.096	-139.998	-63.815	148.729
435	4.35	-117.688	70.216	95.616	-77.821	274.16	229.039	-96.754	287.643	206.697	-46.816	-153.158	-8.669	-46.816	31.938	-8.669	0	0	0	-137.567	-19.137	43.998	-156.197	86.998	95.118	-139.95	-63.924	148.276
436	4.36	-117.628	70.394	95.792	-78.363	273.58	230.544	-97.221	287.182	208.211	-46.816	-153.158	-8.669	-46.816	31.938	-8.669	0	0	0	-137.327	-19.006	44.023	-156.215	86.943	95.432	-139.988	-64.136	148.147
437	4.37	-117.541	70.359	96.068	-78.82	272.744	232.175	-97.599	286.476	209.854	-46.816	-153.158	-8.669	-46.816	31.938	-8.669	0	0	0	-137.2	-19.038	44.172	-156.32	86.744	95.839	-140.157	-64.482	148.151
